<svg width="19" height="19" viewBox="0 0 19 19" fill="none" xmlns="http://www.w3.org/2000/svg">
<path opacity="0.4" fill-rule="evenodd" clip-rule="evenodd" d="M17.1155 8.03516H1.88467C1.80392 8.68432 1.76196 9.39128 1.76196 10.1742C1.76196 15.8861 3.78705 17.9112 9.49971 17.9112C15.2132 17.9112 17.2383 15.8861 17.2383 10.1742C17.2383 9.39128 17.1963 8.68432 17.1155 8.03516Z" fill="#A1A4B1"/>
<path d="M12.3963 10.5582C12.3963 10.886 12.6655 11.152 12.9933 11.152C13.321 11.152 13.587 10.886 13.587 10.5582C13.587 10.2305 13.321 9.96448 12.9933 9.96448H12.9861C12.6584 9.96448 12.3963 10.2305 12.3963 10.5582Z" fill="#A1A4B1"/>
<path d="M12.3963 13.6085C12.3963 13.9363 12.6655 14.2023 12.9933 14.2023C13.321 14.2023 13.587 13.9363 13.587 13.6085C13.587 13.28 13.321 13.0148 12.9933 13.0148H12.9861C12.6584 13.0148 12.3963 13.28 12.3963 13.6085Z" fill="#A1A4B1"/>
<path d="M8.91301 10.5582C8.91301 10.886 9.18296 11.152 9.51071 11.152C9.83846 11.152 10.1045 10.886 10.1045 10.5582C10.1045 10.2305 9.83846 9.96448 9.51071 9.96448H9.50359C9.17584 9.96448 8.91301 10.2305 8.91301 10.5582Z" fill="#A1A4B1"/>
<path d="M8.91301 13.6085C8.91301 13.9363 9.18296 14.2023 9.51071 14.2023C9.83846 14.2023 10.1045 13.9363 10.1045 13.6085C10.1045 13.28 9.83846 13.0148 9.51071 13.0148H9.50359C9.17584 13.0148 8.91301 13.28 8.91301 13.6085Z" fill="#A1A4B1"/>
<path d="M5.42334 10.5582C5.42334 10.886 5.6933 11.152 6.02105 11.152C6.3488 11.152 6.6148 10.886 6.6148 10.5582C6.6148 10.2305 6.3488 9.96448 6.02105 9.96448H6.01392C5.68617 9.96448 5.42334 10.2305 5.42334 10.5582Z" fill="#A1A4B1"/>
<path d="M5.42334 13.6085C5.42334 13.9363 5.6933 14.2023 6.02105 14.2023C6.3488 14.2023 6.6148 13.9363 6.6148 13.6085C6.6148 13.28 6.3488 13.0148 6.02105 13.0148H6.01392C5.68617 13.0148 5.42334 13.28 5.42334 13.6085Z" fill="#A1A4B1"/>
<path fill-rule="evenodd" clip-rule="evenodd" d="M13.4215 2.95154V1.6825C13.4215 1.35475 13.1555 1.08875 12.8277 1.08875C12.5 1.08875 12.234 1.35475 12.234 1.6825V4.2657C12.234 4.47154 12.3456 4.64491 12.5055 4.751C12.4113 4.81433 12.3044 4.85945 12.1825 4.85945C11.8548 4.85945 11.5888 4.59345 11.5888 4.2657V2.55095C10.9539 2.47495 10.2619 2.43616 9.49956 2.43616C8.60181 2.43616 7.80144 2.49 7.08181 2.59845V1.6825C7.08181 1.35475 6.81581 1.08875 6.48806 1.08875C6.16031 1.08875 5.89431 1.35475 5.89431 1.6825V4.2657C5.89431 4.47154 6.00594 4.64491 6.16585 4.751C6.07165 4.81433 5.96477 4.85945 5.84285 4.85945C5.5151 4.85945 5.2491 4.59345 5.2491 4.2657V3.05445C3.55969 3.706 2.56852 4.91804 2.09985 6.84812H16.9001C16.4029 4.80087 15.3041 3.5722 13.4215 2.95154Z" fill="#A1A4B1"/>
</svg>
