<svg width="38" height="38" viewBox="0 0 38 38" fill="none" xmlns="http://www.w3.org/2000/svg">
<circle cx="19" cy="19" r="19" fill="white"/>
<path d="M25.4706 9H15.5294C14.6882 9 14 9.71053 14 10.5789V11.3684H23.1765C24.0176 11.3684 24.7059 12.0789 24.7059 12.9474V24H25.4706C26.3118 24 27 23.2895 27 22.4211V10.5789C27 9.71053 26.3118 9 25.4706 9Z" fill="#B9E5FF"/>
<path d="M23 14.5789C23 13.7105 22.3118 13 21.4706 13H11.5294C10.6882 13 10 13.7105 10 14.5789V26.4211C10 27.2895 10.6882 28 11.5294 28H21.4706C22.3118 28 23 27.2895 23 26.4211V14.5789ZM16.1176 17.3421C16.1176 17.5789 15.9647 17.7368 15.7353 17.7368H12.6765C12.4471 17.7368 12.2941 17.5789 12.2941 17.3421V16.5526C12.2941 16.3158 12.4471 16.1579 12.6765 16.1579H15.7353C15.9647 16.1579 16.1176 16.3158 16.1176 16.5526V17.3421ZM19.1765 23.6579C19.1765 23.8947 19.0235 24.0526 18.7941 24.0526H12.6765C12.4471 24.0526 12.2941 23.8947 12.2941 23.6579V22.8684C12.2941 22.6316 12.4471 22.4737 12.6765 22.4737H18.7941C19.0235 22.4737 19.1765 22.6316 19.1765 22.8684V23.6579ZM20.7059 20.5C20.7059 20.7368 20.5529 20.8947 20.3235 20.8947H12.6765C12.4471 20.8947 12.2941 20.7368 12.2941 20.5V19.7105C12.2941 19.4737 12.4471 19.3158 12.6765 19.3158H20.3235C20.5529 19.3158 20.7059 19.4737 20.7059 19.7105V20.5Z" fill="#00A3FF"/>
</svg>
