<svg width="24" height="6" viewBox="0 0 24 6" fill="none" xmlns="http://www.w3.org/2000/svg">
<path d="M5.33333 3.00004C5.33333 4.47284 4.13943 5.66671 2.66667 5.66671C1.19391 5.66671 0 4.47284 0 3.00004C0 1.52724 1.19391 0.333374 2.66667 0.333374C4.13943 0.333374 5.33333 1.52724 5.33333 3.00004Z" fill="#1C274C"/>
<path d="M23.9993 3.00004C23.9993 4.47284 22.8055 5.66671 21.3327 5.66671C19.8599 5.66671 18.666 4.47284 18.666 3.00004C18.666 1.52724 19.8599 0.333374 21.3327 0.333374C22.8055 0.333374 23.9993 1.52724 23.9993 3.00004Z" fill="#1C274C"/>
<path opacity="0.5" d="M14.6673 3.00004C14.6673 4.47284 13.4735 5.66671 12.0007 5.66671C10.5279 5.66671 9.33398 4.47284 9.33398 3.00004C9.33398 1.52724 10.5279 0.333374 12.0007 0.333374C13.4735 0.333374 14.6673 1.52724 14.6673 3.00004Z" fill="#1C274C"/>
</svg>
