<svg width="19" height="19" viewBox="0 0 19 19" fill="none" xmlns="http://www.w3.org/2000/svg">
<path d="M7.72839 11.3738C7.27318 10.9194 6.99609 10.3019 6.99609 9.6092C6.99609 8.22141 8.11393 7.10278 9.50093 7.10278C10.1873 7.10278 10.8191 7.38066 11.2663 7.83507" stroke="black" stroke-width="1.4" stroke-linecap="round" stroke-linejoin="round"/>
<path d="M11.9596 10.0532C11.776 11.0745 10.9716 11.8804 9.95117 12.0656" stroke="black" stroke-width="1.4" stroke-linecap="round" stroke-linejoin="round"/>
<path d="M5.26919 13.8322C4.01282 12.8458 2.94882 11.405 2.17773 9.60869C2.95673 7.80448 4.02786 6.35573 5.29215 5.3614C6.54853 4.36707 7.99807 3.82715 9.50065 3.82715C11.0119 3.82715 12.4607 4.37498 13.725 5.37644" stroke="black" stroke-width="1.4" stroke-linecap="round" stroke-linejoin="round"/>
<path d="M15.3969 7.11768C15.9416 7.84126 16.4206 8.67647 16.8235 9.60826C15.2663 13.2159 12.5145 15.389 9.50059 15.389C8.81739 15.389 8.14368 15.2782 7.49609 15.0621" stroke="black" stroke-width="1.4" stroke-linecap="round" stroke-linejoin="round"/>
<path d="M15.7456 3.36426L3.25781 15.852" stroke="black" stroke-width="1.4" stroke-linecap="round" stroke-linejoin="round"/>
</svg>
