<svg width="36" height="76" viewBox="0 0 36 76" fill="none" xmlns="http://www.w3.org/2000/svg">
<path d="M0.799375 0.263298C-0.090347 0.768173 -0.122701 1.00576 0.152304 5.34173C0.297895 7.49487 0.896435 19.7158 1.46262 32.4861C2.04499 45.2564 2.56264 55.7697 2.62735 55.8736C2.69206 55.9627 4.53621 58.3089 6.72007 61.0857L10.7157 66.1345L11.476 70.3665C12.2525 74.7767 12.3334 74.9994 13.2555 75.6231C13.6761 75.9201 13.9511 75.9349 17.7688 75.9795C21.7806 76.024 21.8615 76.024 22.5571 75.6825C23.0101 75.4598 23.3821 75.1331 23.5601 74.8213C23.7218 74.5243 24.1263 72.6978 24.4983 70.515C24.8704 68.4361 25.1939 66.5799 25.2425 66.4017C25.291 66.2384 27.1028 63.8328 29.2866 61.0857C31.6161 58.1307 33.3147 55.8439 33.4117 55.5321C33.4926 55.2351 33.897 47.5135 34.3014 38.3664C35.0132 22.0917 35.0294 21.7353 34.7382 21.364C34.2529 20.7849 33.1044 20.7701 32.7646 21.364C32.6352 21.5719 31.147 51.5674 31.147 53.9135V54.3293H18.06H4.9568L4.87592 53.6908C4.82739 53.3493 4.39061 43.8458 3.88914 32.5752C3.40383 21.3046 2.95088 11.5339 2.90235 10.8508L2.80529 9.63316H17.9629H33.1205L32.9911 12.8554C32.8132 17.1023 32.8132 17.132 33.1691 17.4884C33.5573 17.8893 34.4309 17.9042 34.8515 17.5181C35.2397 17.1617 35.3044 16.6865 35.5147 11.4151C35.6118 9.08373 35.7574 6.35148 35.8382 5.32688C35.9191 4.30228 36 2.92131 36 2.25309C36 1.1097 35.9676 0.990906 35.5309 0.545433L35.0617 0.0554047L18.1732 0.0108566C1.88322 -0.018837 1.28468 -0.00399017 0.799375 0.263298ZM33.5088 3.94591C33.4441 4.9111 33.3632 6.0545 33.2985 6.47028L33.2176 7.25728H17.9629H2.72441L2.61117 5.28233C2.54646 4.21319 2.46558 3.0698 2.41705 2.75797L2.31999 2.20854H17.9629H33.6058L33.5088 3.94591ZM28.1219 58.7395C27.1837 59.9572 25.7439 61.7539 24.9513 62.7488L23.5115 64.5753H17.9953L12.4628 64.5604L9.47012 60.7739C7.82009 58.6801 6.41271 56.8834 6.348 56.7646C6.23477 56.5864 7.9495 56.5567 18.0438 56.5567H29.8528L28.1219 58.7395ZM22.6542 67.1294C22.6056 67.3224 22.363 68.7034 22.088 70.218C21.813 71.7326 21.5542 73.1433 21.5056 73.3809L21.4086 73.7818H17.9791H14.5496L13.9511 70.411C13.6275 68.54 13.3525 66.9809 13.3525 66.9066C13.3525 66.8472 15.4717 66.8027 18.0438 66.8027H22.7351L22.6542 67.1294Z" fill="#808080"/>
<path d="M11.5246 21.3639C10.5216 21.6015 9.30835 22.2401 8.59658 22.9231C7.82009 23.6507 6.88184 25.1653 6.88184 25.6999C6.88184 26.2345 7.44803 26.7097 8.0951 26.7097C8.74217 26.7097 8.98482 26.5018 9.45394 25.6108C9.90689 24.7644 11.0393 23.8141 11.8319 23.6062C12.7864 23.3686 13.304 23.3983 14.8893 23.8438C16.8144 24.3635 19.2085 24.3932 20.7938 23.918C22.5571 23.3686 23.5115 23.3389 24.563 23.7844C26.1807 24.4674 27.0866 26.0266 27.216 28.3431C27.3454 30.5408 26.8763 31.892 24.741 35.4707C24.0777 36.5993 23.3336 38.099 23.0424 38.9157C22.2983 41.0689 21.8939 40.8758 21.7159 38.2772C21.5056 35.2777 20.2924 33.8373 17.9629 33.8373C16.4423 33.8373 15.3746 34.5501 14.7276 35.9756C14.582 36.2874 14.404 37.312 14.307 38.2624C14.2261 39.1979 14.0805 40.0591 13.9834 40.1631C13.6114 40.5788 13.3849 40.3561 13.1099 39.3018C12.9481 38.7227 12.3819 37.4754 11.8481 36.525C11.3143 35.5747 10.5701 34.2679 10.2143 33.5997C9.84219 32.9463 9.37306 31.9366 9.17894 31.3575C8.67746 29.932 8.17598 29.5459 7.23773 29.9023C6.08918 30.3477 6.44507 31.7139 8.75834 35.8568C9.69659 37.5348 10.5701 39.3315 10.7481 39.9255C11.1849 41.3807 11.5407 41.8707 12.3819 42.2568C13.2878 42.6874 14.0643 42.6874 14.9702 42.2568C16.0702 41.7519 16.5555 40.7719 16.7335 38.6484C16.8144 37.6387 16.9761 36.822 17.1379 36.525C17.3806 36.0944 17.4776 36.0498 18.0114 36.0944C18.8526 36.1538 19.16 36.7774 19.3218 38.7821C19.5321 41.1134 20.2762 42.2865 21.6997 42.5389C23.4468 42.8359 24.741 41.9301 25.1939 40.1037C25.3072 39.6136 26.1484 37.8763 27.1998 35.9756C28.6234 33.4067 29.0763 32.4118 29.3514 31.3575C30.419 27.1848 28.8984 23.235 25.6792 21.7797C24.6924 21.3342 24.4822 21.2897 23.1395 21.3046C22.0556 21.3046 21.3762 21.3936 20.4703 21.6758C18.8688 22.151 17.1217 22.151 15.5364 21.6758C14.2584 21.3046 12.4305 21.1561 11.5246 21.3639Z" fill="#808080"/>
</svg>
