<svg width="61" height="72" viewBox="0 0 61 72" fill="none" xmlns="http://www.w3.org/2000/svg">
<path d="M1.13292 0.236626C0.530915 0.514999 0.0865763 1.12743 0.000575257 1.78162C-0.0280918 2.05999 1.01825 15.102 2.33694 30.7607C4.6733 58.5427 4.73063 59.35 4.81663 64.2355C4.91697 69.9283 4.91697 69.9562 6.10665 70.7774L6.72299 71.1949L16.9858 71.181C22.6475 71.1671 27.5209 71.1671 27.8363 71.1671C28.1516 71.181 35.0173 71.181 43.1014 71.181L57.7933 71.1949L58.4956 70.8609C59.3986 70.4294 60.1583 69.6917 60.6026 68.8148L60.9467 68.1328L60.9897 60.9646C61.0183 56.1626 60.9897 53.6294 60.875 53.2814C60.703 52.6829 59.8573 51.9173 59.3843 51.9173H59.0403L58.983 48.7438C58.94 45.8626 58.9113 45.5286 58.6246 44.9161C58.1516 43.9418 57.0623 42.8979 55.0269 41.5339C52.6046 39.9054 51.4722 38.7919 50.7985 37.4139C49.8525 35.4931 49.1932 35.3817 46.6131 36.7736C43.6461 38.3743 42.7574 38.6109 37.2104 39.3904C33.799 39.8636 32.3083 40.1559 31.348 40.5595C31.1616 40.6291 31.2476 39.2512 31.993 31.1782C32.6236 24.191 32.81 21.6438 32.6953 21.4629C32.2366 20.7669 31.219 20.7252 30.875 21.4072C30.7316 21.6577 30.3589 25.1792 29.7569 31.8603L28.8396 41.9514L28.2376 42.6474C27.0909 43.9418 26.9906 44.3872 26.9332 48.4098C26.8902 51.8199 26.8759 51.9173 26.5892 51.9173C26.1306 51.9173 25.5142 52.3349 25.1989 52.8917C24.9122 53.3788 24.8979 53.6294 24.8979 56.7054V59.9903L15.9108 59.9624L6.90933 59.9207L4.81663 34.7275C3.65562 20.8644 2.66661 9.11685 2.62361 8.58794L2.53761 7.65537H17.0861C28.6246 7.65537 31.6346 7.69713 31.6346 7.8224C31.6346 7.91983 31.5056 9.75712 31.348 11.9006C30.9753 16.981 30.9753 17.4542 31.348 17.8161C31.7063 18.1641 32.3656 18.178 32.7956 17.8301C33.111 17.5795 33.1253 17.4542 33.6413 9.79888C33.9423 5.3866 34.1143 1.80946 34.057 1.55891C33.928 0.988243 33.4407 0.445404 32.8243 0.194862C32.4373 0.0278397 29.6996 0 16.9858 0C3.11095 0 1.56293 0.0278397 1.13292 0.236626ZM32.0073 2.32445C31.9786 2.46364 31.907 3.2431 31.8496 4.06431L31.7493 5.56754H17.0861H2.42294L2.33694 4.89944C2.29394 4.53755 2.22227 3.75809 2.17927 3.15958L2.07893 2.08783H17.0861C31.305 2.08783 32.079 2.10175 32.0073 2.32445ZM49.1072 38.7919C49.8812 40.3368 51.2285 41.5617 54.6829 43.8444C56.0876 44.777 56.7183 45.459 56.7183 46.0993V46.489H42.8864H29.0546V46.0575C29.0546 44.8048 29.8286 43.7191 31.2476 42.9536C32.767 42.1463 33.5266 41.9654 38.2997 41.339C42.7574 40.7544 44.4345 40.2812 47.0432 38.9171C47.8315 38.4996 48.5482 38.1516 48.6342 38.1516C48.7058 38.1377 48.9208 38.43 49.1072 38.7919ZM56.8329 50.2053L56.7899 51.8477H42.9581H29.1263L29.0833 50.2053L29.0403 48.5768H42.9581H56.8759L56.8329 50.2053ZM58.8396 60.8811C58.7966 67.59 58.7823 67.7709 58.4956 68.1467C58.338 68.3555 58.0226 68.6617 57.8076 68.8148C57.4206 69.1071 57.3059 69.1071 43.0728 69.1489L28.7393 69.1767L28.1946 68.8844C27.8936 68.7174 27.5209 68.3555 27.3489 68.0632C27.0479 67.5482 27.0479 67.409 27.0479 60.7697V54.0052H42.9581H58.8826L58.8396 60.8811ZM24.8979 64.8897C24.9122 67.2559 24.9552 67.8405 25.1702 68.439L25.4282 69.1767H24.0092H22.6045V68.1606C22.6045 66.379 22.0885 65.349 20.9705 64.8479C20.4545 64.6252 19.9958 64.5835 17.0145 64.5835C13.7894 64.5835 13.6174 64.5974 13.0871 64.9036C12.7717 65.0707 12.3274 65.4465 12.0837 65.7388C11.6537 66.2538 11.6394 66.3512 11.5964 67.7292L11.5391 69.1767H9.51803C7.841 69.1767 7.454 69.135 7.239 68.9401C7.00966 68.7313 6.98099 68.439 6.98099 65.3908V62.0781H15.9394H24.8979V64.8897ZM20.2252 66.894C20.3972 67.0471 20.4545 67.3951 20.4545 68.1467V69.1767H17.0861H13.7177V68.091C13.7177 67.4369 13.7894 66.9358 13.8897 66.8383C14.0187 66.7131 14.9074 66.6713 17.0288 66.6713C19.5371 66.6713 20.0388 66.6992 20.2252 66.894Z" fill="#808080"/>
<path d="M32.8816 56.9839C32.5806 57.0953 32.2079 57.2902 32.0359 57.4433C31.3909 58 31.3479 58.2784 31.3479 61.6328C31.3479 64.7089 31.3623 64.8342 31.6776 65.2796C32.2796 66.1426 32.6953 66.2539 35.4473 66.2539C37.8123 66.2539 37.8983 66.24 38.1993 65.9338C38.6437 65.4745 38.615 64.8203 38.142 64.4584C37.798 64.1939 37.5687 64.1661 35.6336 64.1661H33.498V61.5215V58.8769H42.9581H52.4182V61.5215V64.1661H47.2581H42.0837L41.7397 64.514C41.2811 64.9455 41.2811 65.4745 41.7397 65.9059L42.0837 66.2539H47.5018C52.8482 66.2539 52.9342 66.24 53.4789 65.9338C54.4965 65.377 54.5682 65.0847 54.5682 61.5076C54.5682 58.4733 54.5539 58.348 54.2385 57.9026C54.0665 57.6381 53.6939 57.3041 53.4215 57.151C52.9342 56.8587 52.7192 56.8587 43.1731 56.8308C35.2036 56.803 33.326 56.8308 32.8816 56.9839Z" fill="#808080"/>
<path d="M16.2261 24.1911C15.2084 24.8035 12.9151 27.5177 11.6824 29.5916C10.3064 31.8743 9.70438 33.809 9.70438 35.8968C9.70438 38.3326 10.3637 39.8915 12.0551 41.4505C15.1654 44.3038 19.1358 44.2621 22.1889 41.3391C26.0446 37.6367 24.9696 31.7212 19.2792 25.4577C17.9318 23.9684 17.1578 23.6482 16.2261 24.1911ZM19.3365 28.8261C20.5262 30.3571 21.6585 32.5424 22.0455 34.1013C22.8195 37.1078 21.7015 39.7106 19.0785 40.9911C18.3475 41.3391 18.0751 41.4087 17.0861 41.4087C16.1401 41.4087 15.7961 41.3391 15.1224 41.0329C13.9758 40.5179 12.9437 39.5436 12.3847 38.4301C11.9834 37.6367 11.9261 37.3583 11.8831 36.1891C11.8257 34.6024 12.0551 33.5863 12.8721 31.8882C13.5888 30.4128 14.6924 28.7843 16.0111 27.3089L17.0288 26.1536L17.7025 26.8774C18.0751 27.2671 18.8062 28.144 19.3365 28.8261Z" fill="#808080"/>
</svg>
