<svg width="29" height="29" viewBox="0 0 29 29" fill="none" xmlns="http://www.w3.org/2000/svg">
<circle cx="14.5" cy="14.5" r="14.5" fill="white"/>
<path d="M17.5854 16.0115L14.7002 20.304C14.4188 20.7262 13.7151 21.0077 13.1521 20.7966C12.5188 20.5855 12.0966 19.8818 12.2373 19.2485L12.5891 16.9967C12.6595 16.5041 12.3077 16.1522 11.8854 16.1522H9.07067C8.01512 16.1522 7.36765 15.343 7.73364 14.3226C8.09957 13.3023 8.4232 11.4727 9.42251 9.88934C9.87978 9.16481 10.3813 8.65787 11.238 8.65787C14.0528 8.65787 18.2891 8.65787 18.2891 8.65787" stroke="#13263C" stroke-width="1.2" stroke-miterlimit="10"/>
<path d="M21.4434 15.6949C21.4434 16.0835 21.1283 16.3986 20.7397 16.3986H18.2767C17.8881 16.3986 17.573 16.0835 17.573 15.6949V8.65794H20.7397C21.1283 8.65794 21.4434 8.97298 21.4434 9.36163V15.6949Z" stroke="#13263C" stroke-width="1.2"/>
</svg>
