<svg width="18" height="17" viewBox="0 0 18 17" fill="none" xmlns="http://www.w3.org/2000/svg">
<path d="M5.46757 7.05373L8.81 2.08083C9.13609 1.59169 9.95132 1.2656 10.6035 1.51017C11.3372 1.75474 11.8264 2.56997 11.6633 3.30368L11.2557 5.91242C11.1742 6.48308 11.5818 6.89069 12.0709 6.89069H15.3318C16.5547 6.89069 17.3048 7.8282 16.8808 9.01029C16.4569 10.1924 16.0819 12.312 14.9242 14.1462C14.3945 14.9856 13.8135 15.5729 12.821 15.5729C9.56009 15.5729 4.65234 15.5729 4.65234 15.5729" stroke="#B5B5C3" stroke-width="1.2" stroke-miterlimit="10"/>
<path d="M1 7.42054C1 6.97033 1.365 6.60535 1.81523 6.60535H4.66854C5.11878 6.60535 5.48377 6.97033 5.48377 7.42054V15.5728H1.81523C1.365 15.5728 1 15.2079 1 14.7576V7.42054Z" stroke="#B5B5C3" stroke-width="1.2"/>
</svg>
