<svg width="18" height="16" viewBox="0 0 18 16" fill="none" xmlns="http://www.w3.org/2000/svg">
<path d="M12.5324 9.51902L9.19 14.4919C8.86391 14.9811 8.04868 15.3072 7.3965 15.0626C6.66279 14.818 6.17365 14.0028 6.3367 13.2691L6.74431 10.6603C6.82583 10.0897 6.41822 9.68206 5.92908 9.68206H2.66816C1.44531 9.68206 0.695217 8.74455 1.11922 7.56247C1.54314 6.38038 1.91806 4.26078 3.07577 2.42651C3.60551 1.58715 4.18652 0.99986 5.17899 0.99986C8.43991 0.99986 13.3477 0.99986 13.3477 0.99986" stroke="#B5B5C3" stroke-width="1.2" stroke-miterlimit="10"/>
<path d="M17 9.15222C17 9.60242 16.635 9.96741 16.1848 9.96741H13.3315C12.8812 9.96741 12.5162 9.60242 12.5162 9.15222L12.5162 0.99991H16.1848C16.635 0.99991 17 1.36489 17 1.81514V9.15222Z" stroke="#B5B5C3" stroke-width="1.2"/>
</svg>
